<svg id="Layer_1" data-name="Layer 1" xmlns="http://www.w3.org/2000/svg" viewBox="0 0 633.56 201.91">
  <defs>
    <style>
      .cls-1 {
        fill: #7effa7;
      }

      .cls-2 {
        fill: #fff;
      }
    </style>
  </defs>
  <title>ep_logo</title>
  <g>
    <path class="cls-1" d="M693,340.32v16H647.2l-15.24-16ZM647.2,380.24H693v15.9H632v-15.9Zm0,39.69H693v16H632v-1.32Z" transform="translate(-631.96 -340.32)"/>
    <path class="cls-1" d="M692.69,340.32l45.95,47.81,45.84-47.81V436H769.35V378.81l-30.71,31.92-45.95-48.18Z" transform="translate(-631.96 -340.32)"/>
    <path class="cls-1" d="M789.86,340.32l46,47.81,45.83-47.81V436H866.53V378.81l-30.71,31.92-46-48.18Z" transform="translate(-631.96 -340.32)"/>
    <path class="cls-1" d="M929.66,419.93l-7.79,16h-17l45.84-95.63,30.59,63.83H964.16l-13.41-28.09-13.52,28.09Zm66.92,16H979.51L972,420.05h17Z" transform="translate(-631.96 -340.32)"/>
    <path class="cls-1" d="M1040,340.32V436l-76.2-71.49V340.32l61,57.26V340.32Z" transform="translate(-631.96 -340.32)"/>
    <path class="cls-1" d="M1133.86,396.14c0,11-3.67,20.44-11.23,28.21a37.19,37.19,0,0,1-54,0,39.48,39.48,0,0,1-11.12-28.21V340.32h15.24v55.82a23.36,23.36,0,0,0,6.53,16.74,22.17,22.17,0,0,0,32.43,0,23.58,23.58,0,0,0,6.88-16.74Z" transform="translate(-631.96 -340.32)"/>
    <path class="cls-1" d="M1192.65,340.32v16h-45.84l-15.24-16Zm-45.84,39.92h45.84v15.9h-61.08v-15.9Zm0,39.69h45.84v16h-61.08v-1.32Z" transform="translate(-631.96 -340.32)"/>
    <path class="cls-1" d="M1219.69,340.32v58l-15.25,16v-74Zm45.83,79.61v16h-61.08l15.25-16Z" transform="translate(-631.96 -340.32)"/>
  </g>
  <g>
    <path class="cls-2" d="M806.81,478.52a31.2,31.2,0,0,1-8.94,22.59,28.85,28.85,0,0,1-21.54,9.32h-30.6v31.8H730.49V494.41h45.84A14.23,14.23,0,0,0,787,489.75a15.69,15.69,0,0,0,4.59-11.23A15.41,15.41,0,0,0,787,467.28a14.23,14.23,0,0,0-10.65-4.66h-30.6l-15.24-16h45.84a28.85,28.85,0,0,1,21.54,9.32A31.87,31.87,0,0,1,806.81,478.52Z" transform="translate(-631.96 -340.32)"/>
    <path class="cls-2" d="M835.11,526.21l-15.24,16V446.6l15.24,15.78Z" transform="translate(-631.96 -340.32)"/>
    <path class="cls-2" d="M881.75,446.6v16H851.27v79.61H835.91V446.6Z" transform="translate(-631.96 -340.32)"/>
    <path class="cls-2" d="M891.26,528.12a50,50,0,0,1-9.86-15.3,48,48,0,0,1-3.66-18.41,48.3,48.3,0,0,1,13.52-33.71,45.84,45.84,0,0,1,14.67-10.28,43.82,43.82,0,0,1,35.52-.12,47.56,47.56,0,0,1,14.67,10.4l-10.89,11.12a29,29,0,0,0-21.54-9.2A30.31,30.31,0,0,0,911.77,465a28.79,28.79,0,0,0-9.74,6.93,32.91,32.91,0,0,0-6.53,34.91,30.83,30.83,0,0,0,6.65,10,29.43,29.43,0,0,0,9.62,6.93,30.9,30.9,0,0,0,11.92,2.39l17.76,12.31a43.72,43.72,0,0,1-35.52-.12A47.63,47.63,0,0,1,891.26,528.12Z" transform="translate(-631.96 -340.32)"/>
    <path class="cls-2" d="M1019.37,446.6v95.63h-15.24V502.42H958.29v39.81H943.05V502.42l15.24-16h45.84V446.6Z" transform="translate(-631.96 -340.32)"/>
    <path class="cls-2" d="M1085.83,446.6v16H1040l-15.25-16ZM1040,486.52h45.83v15.9h-61.08v-15.9Zm0,39.69h45.83v16h-61.08v-1.32Z" transform="translate(-631.96 -340.32)"/>
    <path class="cls-2" d="M1136.25,507.92,1155,542.23h-17.53l-26.58-47.94,13.63.12a14.25,14.25,0,0,0,10.66-4.66,15.51,15.51,0,0,0,4.58-11.35,15.17,15.17,0,0,0-4.58-11.12,14.25,14.25,0,0,0-10.66-4.66H1094l-1.72-1.8-7.91-14.22h40.22a28.85,28.85,0,0,1,21.55,9.32A31.62,31.62,0,0,1,1155,478.4a31.12,31.12,0,0,1-5.38,18.05A29.87,29.87,0,0,1,1136.25,507.92Z" transform="translate(-631.96 -340.32)"/>
  </g>
</svg>
